<svg width="1600" height="720" viewBox="0 0 1600 720" fill="none" xmlns="http://www.w3.org/2000/svg">
  <rect width="1600" height="720" fill="#05080D"/>
  <rect width="1600" height="720" fill="url(#bg)"/>
  <g opacity="0.22">
    <path d="M0 140H1600M0 280H1600M0 420H1600M0 560H1600" stroke="url(#lineH)"/>
    <path d="M160 0V720M320 0V720M480 0V720M640 0V720M800 0V720M960 0V720M1120 0V720M1280 0V720M1440 0V720" stroke="url(#lineV)"/>
  </g>
  <circle cx="220" cy="120" r="180" fill="url(#glow1)"/>
  <circle cx="1320" cy="620" r="220" fill="url(#glow2)"/>
  <defs>
    <linearGradient id="bg" x1="800" y1="0" x2="800" y2="720" gradientUnits="userSpaceOnUse">
      <stop stop-color="#0A1017"/>
      <stop offset="1" stop-color="#05080D"/>
    </linearGradient>
    <linearGradient id="lineH" x1="0" y1="0" x2="1600" y2="0" gradientUnits="userSpaceOnUse">
      <stop stop-color="transparent"/>
      <stop offset="0.5" stop-color="#1A8CC4"/>
      <stop offset="1" stop-color="transparent"/>
    </linearGradient>
    <linearGradient id="lineV" x1="0" y1="0" x2="0" y2="720" gradientUnits="userSpaceOnUse">
      <stop stop-color="transparent"/>
      <stop offset="0.5" stop-color="#1A8CC4"/>
      <stop offset="1" stop-color="transparent"/>
    </linearGradient>
    <radialGradient id="glow1" cx="0" cy="0" r="1" gradientUnits="userSpaceOnUse" gradientTransform="translate(220 120) rotate(90) scale(180)">
      <stop stop-color="#1FB7FF" stop-opacity="0.16"/>
      <stop offset="1" stop-color="#05080D" stop-opacity="0"/>
    </radialGradient>
    <radialGradient id="glow2" cx="0" cy="0" r="1" gradientUnits="userSpaceOnUse" gradientTransform="translate(1320 620) rotate(90) scale(220)">
      <stop stop-color="#1FB7FF" stop-opacity="0.14"/>
      <stop offset="1" stop-color="#05080D" stop-opacity="0"/>
    </radialGradient>
  </defs>
</svg>
