<svg width="1200" height="900" viewBox="0 0 1200 900" fill="none" xmlns="http://www.w3.org/2000/svg">
  <rect width="1200" height="900" rx="48" fill="#071019"/>
  <rect width="1200" height="900" rx="48" fill="url(#bg)"/>
  <rect x="152" y="180" width="428" height="520" rx="30" fill="#0A151F" stroke="rgba(255,255,255,0.08)"/>
  <rect x="620" y="180" width="428" height="520" rx="30" fill="#0B1722" stroke="rgba(255,255,255,0.08)"/>
  <rect x="216" y="244" width="300" height="108" rx="20" fill="#102537"/>
  <rect x="216" y="388" width="300" height="78" rx="18" fill="#101F2D"/>
  <rect x="216" y="500" width="300" height="132" rx="20" fill="#12293B"/>
  <rect x="684" y="244" width="300" height="388" rx="20" fill="#101F2E"/>
  <path d="M252 278H438" stroke="#80E8FF" stroke-width="4" stroke-linecap="round"/>
  <path d="M252 308H396" stroke="rgba(229,242,255,0.34)" stroke-width="2.5" stroke-linecap="round"/>
  <path d="M716 286H898" stroke="#80E8FF" stroke-width="4" stroke-linecap="round"/>
  <path d="M716 316H876" stroke="rgba(229,242,255,0.34)" stroke-width="2.5" stroke-linecap="round"/>
  <g opacity="0.88">
    <rect x="742" y="366" width="184" height="26" rx="13" fill="#13374E"/>
    <rect x="742" y="418" width="142" height="26" rx="13" fill="#143349"/>
    <rect x="742" y="470" width="204" height="26" rx="13" fill="#13374E"/>
    <rect x="742" y="522" width="118" height="26" rx="13" fill="#143349"/>
  </g>
  <path d="M120 720C300 624 470 598 598 598C726 598 896 624 1080 720" stroke="url(#trace)" stroke-width="2"/>
  <circle cx="844" cy="570" r="110" fill="url(#glow)"/>
  <defs>
    <linearGradient id="bg" x1="600" y1="0" x2="600" y2="900" gradientUnits="userSpaceOnUse">
      <stop stop-color="#09121B"/>
      <stop offset="1" stop-color="#05080D"/>
    </linearGradient>
    <linearGradient id="trace" x1="120" y1="720" x2="1080" y2="720" gradientUnits="userSpaceOnUse">
      <stop stop-color="#80E8FF" stop-opacity="0"/>
      <stop offset="0.5" stop-color="#80E8FF" stop-opacity="0.82"/>
      <stop offset="1" stop-color="#80E8FF" stop-opacity="0"/>
    </linearGradient>
    <radialGradient id="glow" cx="0" cy="0" r="1" gradientUnits="userSpaceOnUse" gradientTransform="translate(844 570) rotate(90) scale(110)">
      <stop stop-color="#23C0FF" stop-opacity="0.32"/>
      <stop offset="1" stop-color="#071019" stop-opacity="0"/>
    </radialGradient>
  </defs>
</svg>
