<svg width="1200" height="900" viewBox="0 0 1200 900" fill="none" xmlns="http://www.w3.org/2000/svg">
  <rect width="1200" height="900" rx="48" fill="#071019"/>
  <rect width="1200" height="900" rx="48" fill="url(#bg)"/>
  <circle cx="600" cy="450" r="290" fill="url(#coreGlow)"/>
  <path d="M600 168L840 308V592L600 732L360 592V308L600 168Z" fill="url(#shape)" stroke="rgba(126,232,255,0.28)" stroke-width="2"/>
  <path d="M600 258L754 349V551L600 641L446 551V349L600 258Z" fill="url(#shapeInner)" stroke="rgba(255,255,255,0.1)"/>
  <path d="M480 449L560 529L720 369" stroke="#80E8FF" stroke-width="16" stroke-linecap="round" stroke-linejoin="round"/>
  <path d="M192 242L1008 658" stroke="url(#diag1)" stroke-width="1.5"/>
  <path d="M1008 242L192 658" stroke="url(#diag2)" stroke-width="1.5"/>
  <g filter="url(#glow)">
    <circle cx="282" cy="286" r="7" fill="#80E8FF"/>
    <circle cx="918" cy="282" r="7" fill="#80E8FF"/>
    <circle cx="220" cy="642" r="7" fill="#80E8FF"/>
    <circle cx="980" cy="642" r="7" fill="#80E8FF"/>
  </g>
  <defs>
    <linearGradient id="bg" x1="600" y1="0" x2="600" y2="900" gradientUnits="userSpaceOnUse">
      <stop stop-color="#0A121B"/>
      <stop offset="1" stop-color="#05080D"/>
    </linearGradient>
    <radialGradient id="coreGlow" cx="0" cy="0" r="1" gradientUnits="userSpaceOnUse" gradientTransform="translate(600 450) rotate(90) scale(290)">
      <stop stop-color="#22C2FF" stop-opacity="0.28"/>
      <stop offset="1" stop-color="#071019" stop-opacity="0"/>
    </radialGradient>
    <linearGradient id="shape" x1="600" y1="168" x2="600" y2="732" gradientUnits="userSpaceOnUse">
      <stop stop-color="#102536"/>
      <stop offset="1" stop-color="#0A1621"/>
    </linearGradient>
    <linearGradient id="shapeInner" x1="600" y1="258" x2="600" y2="641" gradientUnits="userSpaceOnUse">
      <stop stop-color="#153750"/>
      <stop offset="1" stop-color="#0D1C28"/>
    </linearGradient>
    <linearGradient id="diag1" x1="192" y1="242" x2="1008" y2="658" gradientUnits="userSpaceOnUse">
      <stop stop-color="#80E8FF" stop-opacity="0"/>
      <stop offset="0.5" stop-color="#80E8FF" stop-opacity="0.78"/>
      <stop offset="1" stop-color="#80E8FF" stop-opacity="0"/>
    </linearGradient>
    <linearGradient id="diag2" x1="1008" y1="242" x2="192" y2="658" gradientUnits="userSpaceOnUse">
      <stop stop-color="#80E8FF" stop-opacity="0"/>
      <stop offset="0.5" stop-color="#80E8FF" stop-opacity="0.78"/>
      <stop offset="1" stop-color="#80E8FF" stop-opacity="0"/>
    </linearGradient>
    <filter id="glow" x="193" y="255" width="814" height="418" color-interpolation-filters="sRGB">
      <feFlood flood-opacity="0" result="BackgroundImageFix"/>
      <feBlend in="SourceGraphic" in2="BackgroundImageFix" result="shape"/>
      <feGaussianBlur stdDeviation="9" result="effect1_foregroundBlur"/>
    </filter>
  </defs>
</svg>
